<svg xmlns="http://www.w3.org/2000/svg" viewBox="0 0 24 24" version="1.1">
  <path d="M11.172 2.6801760000000003C9.097968 2.855352 7.228295999999999 3.665592 5.674224 5.062752000000001L5.381304 5.32608 5.372448 4.90104C5.363952 4.4931600000000005 5.36088 4.470456 5.2964400000000005 4.338864C5.058408 3.8526240000000005 4.3773599999999995 3.7836000000000003 4.072728000000001 4.214832C3.9277200000000003 4.420104 3.9313200000000004 4.377144 3.9352319999999996 5.8490400000000005C3.9371760000000005 6.591 3.94752 7.228512 3.9582 7.265712C4.016184 7.467887999999999 4.15224 7.632312 4.344 7.731912C4.450176 7.787039999999999 4.468896 7.7883119999999995 5.448 7.806768C5.9958 7.817064 6.627599999999999 7.8224160000000005 6.852 7.818648C7.319376 7.810776000000001 7.417368000000001 7.782576000000001 7.600608 7.603224C7.946808000000001 7.2643439999999995 7.856112 6.675168 7.42392 6.455496C7.3173840000000006 6.401352 7.272552000000001 6.395472000000001 6.870504 6.3828C6.62988 6.375216000000001 6.428232 6.364248000000001 6.4224000000000006 6.358392C6.406272 6.342264000000001 6.874295999999999 5.9257919999999995 7.143432 5.7168C8.206056 4.891512 9.501840000000001 4.355232 10.896 4.163784000000001C11.290032 4.1096639999999995 12.134424000000001 4.090728 12.554927999999999 4.1265600000000004C14.350608000000001 4.27956 16.025592 5.015808 17.316672 6.2196C18.70596 7.514976000000001 19.53444 9.089736 19.827408000000002 10.992C19.899696 11.46144 19.907016 12.610032 19.840728000000002 13.08C19.603344 14.762616000000001 18.944471999999998 16.174560000000003 17.826456 17.396520000000002C16.615752 18.719808 14.943816 19.583544 13.104000000000001 19.836216C12.709968 19.890336 11.865576 19.909272 11.445072 19.87344C9.646176 19.720152 7.981056 18.987408000000002 6.677112000000001 17.775288C5.297328 16.492656 4.458408 14.897952000000002 4.175496000000001 13.02C4.106568 12.562439999999999 4.085208000000001 11.721264000000001 4.130616000000001 11.25252C4.179432 10.748688000000001 4.174704 10.571688 4.108848 10.436952C4.033632000000001 10.28304 3.9033360000000004 10.156416 3.7456080000000003 10.083912C3.3673919999999997 9.91008 2.900352 10.11396 2.774976 10.507632C2.704272 10.72968 2.676 11.131872 2.676 11.916C2.676 12.8778 2.729664 13.352352 2.93064 14.167704C3.8230320000000004 17.788296 6.807336 20.57364 10.46832 21.202824C11.092872 21.310176 11.280024 21.324 12.108 21.324C12.740184000000001 21.324 12.965376000000001 21.315168 13.224 21.280224C14.056632 21.167688 14.792856 20.978808 15.540000000000001 20.686008C15.885096 20.550768 16.650503999999998 20.164392 16.963056 19.967664C18.444888000000002 19.034952 19.578648 17.794871999999998 20.352792 16.26C20.695584 15.580392 20.89476 15.041976 21.071976 14.316C21.274056 13.488096 21.324 13.045752 21.324 12.084C21.324 11.597952 21.312528 11.22348 21.292728 11.064C21.126768000000002 9.726288 20.741832000000002 8.534592 20.12988 7.464C18.585384 4.761912000000001 15.916968 3.01956 12.834672000000001 2.700576C12.515232 2.667504 11.473343999999999 2.654736 11.172 2.6801760000000003M11.88816 7.678464C11.76468 7.708728 11.6574 7.783583999999999 11.580336 7.893216000000001L11.508000000000001 7.996104 11.501472 10.023528C11.496888 11.446368000000001 11.50284 12.080904 11.521464 12.151463999999999C11.544768 12.239808 11.702664 12.406991999999999 12.823224000000002 13.529736000000002C13.545264 14.253216 14.135232 14.825327999999999 14.183231999999999 14.848608C14.39976 14.953655999999999 14.698464000000001 14.863512 14.817 14.657352C14.897328 14.517696 14.913264 14.419319999999999 14.879280000000001 14.272944C14.850936 14.150856000000001 14.823408000000002 14.121048 13.677696000000001 12.972L12.505128000000001 11.796 12.498552 9.898223999999999L12.492 8.000472 12.426528000000001 7.901568000000001C12.313920000000001 7.731384 12.075432 7.632576 11.88816 7.678464" stroke="none" fill-rule="evenodd" stroke-width="0.024"></path>
</svg>