<svg xmlns="http://www.w3.org/2000/svg" viewBox="0 0 14 14" version="1.1">
  <path d="M6.912248000000001 1.008532C6.754062 1.035118 6.90914 0.885668 3.399032 4.394362C-0.33479600000000004 8.126678 0.007 7.763266000000001 0.007 8.001C0.007 8.107232 0.01267 8.139082 0.043134 8.204028C0.12073600000000001 8.369438 0.288456 8.485022 0.466214 8.495578C0.582078 8.502466 0.670026 8.480094 0.763 8.420076C0.8015 8.395212 1.091272 8.11594 1.40693 7.799441999999999C1.7226020000000002 7.482944 1.9855639999999999 7.224 1.9912900000000002 7.224C1.99703 7.224 2.003358 8.441468 2.00536 9.9295L2.009 12.635 2.050006 12.715933999999999C2.0955340000000002 12.805786 2.192386 12.904276000000001 2.278318 12.948124C2.309286 12.963916000000001 2.37475 12.983362000000001 2.423806 12.991314000000001C2.5479580000000004 13.01146 11.452042 13.01146 11.576194 12.991314000000001C11.62525 12.983362000000001 11.690714000000002 12.963916000000001 11.721682000000001 12.948124C11.807614 12.904276000000001 11.904466 12.805786 11.949994 12.715933999999999L11.991 12.635 11.99464 9.9295C11.996642000000001 8.441468 12.002970000000001 7.224 12.00871 7.224C12.014436 7.224 12.277398 7.482944 12.59307 7.799441999999999C12.908728 8.11594 13.198500000000001 8.3951 13.237 8.41981C13.32548 8.476608 13.39954 8.498 13.507606 8.498C13.704376 8.498 13.90151 8.360478 13.965434 8.178604C13.978104 8.142526 13.994218 8.102066 14.001246000000002 8.088696C14.018956000000001 8.054941999999999 14.017864 7.891954 14 7.9030000000000005C13.9923 7.907760000000001 13.985944 7.900256 13.98586 7.8863259999999995C13.98579 7.872395999999999 13.969746 7.82635 13.950202 7.784C13.919108 7.716604 13.505856 7.2979899999999995 10.635842 4.426688C8.832474 2.622522 7.327754 1.1246479999999999 7.2919979999999995 1.0981040000000002C7.184113999999999 1.017968 7.047614 0.9857680000000001 6.912248000000001 1.008532M4.99443 4.210612L2.996 6.209238 2.996 9.103612L2.996 11.998000000000001 7 11.998000000000001L11.004 11.998000000000001 11.004 9.103612L11.004 6.209238 9.00557 4.210612C7.90643 3.111374 7.00392 2.212 7 2.212C6.996080000000001 2.212 6.09357 3.111374 4.99443 4.210612M0.004592000000000001 8.001C0.004662 8.0549 0.007182 8.075228000000001 0.01022 8.046192C0.013243999999999999 8.017142 0.013202 7.973042 0.010108 7.948192C0.007014 7.923328 0.004536 7.9471 0.004592000000000001 8.001" stroke="none" fill-rule="evenodd" stroke-width="0.014"></path>
</svg>