<svg width="270" height="272" viewBox="0 0 270 272" fill="none" xmlns="http://www.w3.org/2000/svg">
<g filter="url(#filter0_d_1_83)">
<path d="M0 134C0 59.9938 59.9938 0 134 0C208.006 0 268 59.9938 268 134C268 208.006 208.006 268 134 268C59.9938 268 0 208.006 0 134Z" fill="#FFD000"/>
<path d="M124.997 223.613V208.119C116.901 207.84 108.945 206.723 101.128 204.769C93.3115 202.815 86.6812 200.372 81.2375 197.441L90.6594 170.85C95.9635 173.083 101.477 174.968 107.2 176.503C113.062 178.039 118.995 178.946 124.997 179.225V149.075C119.832 147.54 114.598 145.795 109.294 143.841C103.99 141.886 99.1042 139.374 94.6375 136.303C90.3104 133.093 86.751 129.115 83.9594 124.369C81.3073 119.623 79.9812 113.76 79.9812 106.781C79.9812 95.3354 83.9594 85.9135 91.9156 78.5156C100.011 71.1177 111.039 66.3719 124.997 64.2781V43.9688H142.794V63.2313C150.192 63.3708 157.38 64.4177 164.359 66.3719C171.339 68.1865 176.992 70.5594 181.319 73.4906L172.316 98.6156C167.291 96.2427 162.335 94.3583 157.45 92.9625C152.704 91.5667 147.819 90.799 142.794 90.6594V120.809C147.819 122.345 152.914 124.159 158.078 126.253C163.243 128.347 167.989 130.999 172.316 134.209C176.643 137.28 180.132 141.189 182.784 145.934C185.436 150.541 186.762 156.194 186.762 162.894C186.762 175.317 182.854 185.297 175.037 192.834C167.36 200.372 156.612 205.118 142.794 207.072V223.613H124.997ZM113.9 103.431C113.9 106.083 114.877 108.317 116.831 110.131C118.925 111.806 121.647 113.342 124.997 114.738V92.3344C117.599 94.2886 113.9 97.9875 113.9 103.431ZM142.794 177.759C149.773 175.526 153.262 171.548 153.262 165.825C153.262 163.313 152.285 161.219 150.331 159.544C148.517 157.869 146.004 156.333 142.794 154.938V177.759Z" fill="#FF9900"/>
<path d="M67.7082 66.6937L63.3341 78.4701L39.7812 69.7219L44.1553 57.9455L67.7082 66.6937Z" fill="#FF9900"/>
<path d="M64.2111 123.113V135.675H25.125V123.113H64.2111Z" fill="#FF9900"/>
<path d="M60.2315 182.056L66.5128 192.935L44.7539 205.498L38.4727 194.618L60.2315 182.056Z" fill="#FF9900"/>
<path d="M200.201 72.7303L204.731 84.4477L228.394 76.0031L223.865 64.2858L200.201 72.7303Z" fill="#FF9900"/>
<path d="M204.559 129.394V141.956H243.649V129.394H204.559Z" fill="#FF9900"/>
<path d="M207.752 188.768L201.281 199.535L223.252 211.723L229.723 200.955L207.752 188.768Z" fill="#FF9900"/>
</g>
<g filter="url(#filter1_d_1_83)">
<path d="M125.81 222.938V207.597C117.726 207.32 109.782 206.215 101.977 204.28C94.1723 202.345 87.552 199.926 82.1165 197.024L91.5242 170.695C96.8204 172.906 102.326 174.772 108.04 176.292C113.894 177.813 119.817 178.711 125.81 178.987V149.134C120.653 147.614 115.427 145.886 110.13 143.951C104.834 142.016 99.9562 139.528 95.4963 136.488C91.1757 133.309 87.6217 129.37 84.8343 124.671C82.1862 119.972 80.8621 114.167 80.8621 107.256C80.8621 95.9232 84.8343 86.594 92.7785 79.2689C100.862 71.9438 111.873 67.2446 125.81 65.1715V45.062H143.58V64.1349C150.967 64.2731 158.145 65.3097 165.113 67.2446C172.082 69.0414 177.726 71.3909 182.047 74.2933L173.057 99.1711C168.04 96.8216 163.092 94.9557 158.214 93.5736C153.476 92.1915 148.597 91.4314 143.58 91.2932V121.146C148.597 122.667 153.685 124.464 158.841 126.537C163.998 128.61 168.737 131.236 173.057 134.415C177.378 137.455 180.862 141.325 183.51 146.024C186.159 150.585 187.483 156.183 187.483 162.817C187.483 175.117 183.58 184.999 175.775 192.463C168.11 199.926 157.378 204.625 143.58 206.56V222.938H125.81ZM114.73 103.939C114.73 106.565 115.705 108.777 117.657 110.573C119.747 112.232 122.465 113.752 125.81 115.134V92.9517C118.423 94.8866 114.73 98.5492 114.73 103.939ZM143.58 177.536C150.549 175.325 154.033 171.386 154.033 165.719C154.033 163.231 153.057 161.158 151.106 159.5C149.294 157.841 146.786 156.321 143.58 154.939V177.536Z" fill="#FF9900"/>
<path d="M68.6075 67.5633L64.24 79.2238L40.7227 70.5617L45.0902 58.9012L68.6075 67.5633Z" fill="#FF9900"/>
<path d="M65.1157 123.427V135.866H26.0885V123.427H65.1157Z" fill="#FF9900"/>
<path d="M61.1422 181.79L67.414 192.562L45.6878 205.001L39.416 194.229L61.1422 181.79Z" fill="#FF9900"/>
<path d="M200.901 73.5405L205.424 85.1426L229.052 76.7811L224.529 65.179L200.901 73.5405Z" fill="#FF9900"/>
<path d="M205.252 129.646V142.085H244.283V129.646H205.252Z" fill="#FF9900"/>
<path d="M208.44 188.436L201.979 199.098L223.917 211.166L230.378 200.504L208.44 188.436Z" fill="#FF9900"/>
</g>
<defs>
<filter id="filter0_d_1_83" x="0" y="0" width="270" height="272" filterUnits="userSpaceOnUse" color-interpolation-filters="sRGB">
<feFlood flood-opacity="0" result="BackgroundImageFix"/>
<feColorMatrix in="SourceAlpha" type="matrix" values="0 0 0 0 0 0 0 0 0 0 0 0 0 0 0 0 0 0 127 0" result="hardAlpha"/>
<feOffset dx="2" dy="4"/>
<feComposite in2="hardAlpha" operator="out"/>
<feColorMatrix type="matrix" values="0 0 0 0 1 0 0 0 0 0.433333 0 0 0 0 0 0 0 0 1 0"/>
<feBlend mode="normal" in2="BackgroundImageFix" result="effect1_dropShadow_1_83"/>
<feBlend mode="normal" in="SourceGraphic" in2="effect1_dropShadow_1_83" result="shape"/>
</filter>
<filter id="filter1_d_1_83" x="26.0885" y="45.062" width="220.195" height="181.876" filterUnits="userSpaceOnUse" color-interpolation-filters="sRGB">
<feFlood flood-opacity="0" result="BackgroundImageFix"/>
<feColorMatrix in="SourceAlpha" type="matrix" values="0 0 0 0 0 0 0 0 0 0 0 0 0 0 0 0 0 0 127 0" result="hardAlpha"/>
<feOffset dx="2" dy="4"/>
<feComposite in2="hardAlpha" operator="out"/>
<feColorMatrix type="matrix" values="0 0 0 0 1 0 0 0 0 0.433333 0 0 0 0 0 0 0 0 1 0"/>
<feBlend mode="normal" in2="BackgroundImageFix" result="effect1_dropShadow_1_83"/>
<feBlend mode="normal" in="SourceGraphic" in2="effect1_dropShadow_1_83" result="shape"/>
</filter>
</defs>
</svg>
