<svg xmlns="http://www.w3.org/2000/svg" viewBox="0 0 48 48" version="1.1">
  <path d="M10.316735999999999 0.675552C10.03248 0.719616 9.664176 0.9094559999999999 9.470592 1.111728C9.386208 1.199856 9.257232 1.4016 9.183888 1.56C9.053184 1.842432 9.050256 1.868592 9.032208 2.909088L9.013824000000001 3.9701760000000004 7.7589120000000005 3.998112C6.352080000000001 4.029456000000001 5.9263200000000005 4.0865279999999995 5.136 4.349568C2.861952 5.106432 1.194672 7.0408800000000005 0.7348319999999999 9.456C0.652176 9.89016 0.648 10.667424 0.648 25.68C0.648 40.692575999999995 0.652176 41.469840000000005 0.7348319999999999 41.904C1.2614400000000001 44.669855999999996 3.330144 46.73856 6.096 47.265168C6.5306880000000005 47.347968 7.366608 47.352000000000004 24 47.352000000000004C40.633392 47.352000000000004 41.469312 47.347968 41.904 47.265168C44.669855999999996 46.73856 46.73856 44.669855999999996 47.265168 41.904C47.347824 41.469840000000005 47.352000000000004 40.692575999999995 47.352000000000004 25.68C47.352000000000004 10.667424 47.347824 9.89016 47.265168 9.456C46.805328 7.0408800000000005 45.138048 5.106432 42.864000000000004 4.349568C42.073679999999996 4.0865279999999995 41.64792 4.029456000000001 40.241088 3.998112L38.986176 3.9701760000000004 38.967360000000006 2.909088C38.948928 1.868592 38.945952000000005 1.8422880000000001 38.814384000000004 1.5539520000000002C38.55768 0.9912960000000001 38.05176 0.663552 37.44 0.663552C36.82824 0.663552 36.322320000000005 0.9912960000000001 36.065616 1.5539520000000002C35.933952000000005 1.84248 35.931072 1.8680160000000001 35.912496000000004 2.916L35.893584000000004 3.984 24 3.984L12.106416000000001 3.984 12.087936 2.916C12.069744 1.868256 12.066864 1.8425280000000002 11.936208 1.56C11.765136 1.190112 11.528784 0.949872 11.190048 0.8014080000000001C10.876896 0.664176 10.624751999999999 0.6278400000000001 10.316735999999999 0.675552M6.312 7.150512C5.635824 7.3308 5.139312 7.629312 4.646496000000001 8.151696C4.263408 8.557776 4.031568 8.933615999999999 3.856368 9.43248C3.7237919999999995 9.809952 3.7214400000000003 9.836256 3.7053599999999998 11.1L3.6890400000000003 12.384 24.000576 12.384L44.312112 12.384 44.295120000000004 11.1L44.27808 9.816 44.13096 9.402336C43.945776 8.881776 43.630463999999996 8.404752 43.208304 8.006496C42.802992 7.624128000000001 42.427344000000005 7.392143999999999 41.92752 7.215552000000001L41.544000000000004 7.08 24.096 7.070448C7.198848 7.061184 6.637392 7.063728 6.312 7.150512M3.707472 28.5L3.72 41.544000000000004 3.86808 41.957664C4.0548 42.479136 4.370304 42.956016000000005 4.791696 43.353504C5.197008 43.735872 5.572656 43.967856 6.0724800000000005 44.144448000000004L6.456 44.28 24 44.28L41.544000000000004 44.28 41.92752 44.144448000000004C42.94128 43.786224 43.772448000000004 42.96168 44.13192 41.957664L44.28 41.544000000000004 44.292528 28.5L44.305008 15.456 24 15.456L3.694992 15.456 3.707472 28.5M27.504 19.050624C27.054768 19.196016 26.726784 19.392336 26.419296000000003 19.699824C25.935264 20.183808 25.68 20.798544 25.68 21.48C25.68 22.620383999999998 26.419872 23.587488 27.548736 23.922624C28.356336 24.162336 29.348784000000002 23.892096000000002 29.980463999999998 23.260464000000002C30.464736000000002 22.776144 30.72 22.1616 30.72 21.48C30.72 20.339616000000003 29.980128 19.372512 28.851264 19.037376000000002C28.501104 18.933456 27.846144000000002 18.939888 27.504 19.050624M35.904 19.050624C35.454768 19.196016 35.126784 19.392336 34.819296 19.699824C34.335264 20.183808 34.08 20.798544 34.08 21.48C34.08 22.620383999999998 34.819872 23.587488 35.948736000000004 23.922624C36.756336 24.162336 37.748784 23.892096000000002 38.380463999999996 23.260464000000002C38.864736 22.776144 39.12 22.1616 39.12 21.48C39.12 20.339616000000003 38.380128 19.372512 37.251264 19.037376000000002C36.901104000000004 18.933456 36.246144 18.939888 35.904 19.050624M10.704 27.450624C10.254768 27.596016000000002 9.926784 27.792336 9.619296 28.099824C9.135264000000001 28.583808 8.88 29.198544000000002 8.88 29.88C8.88 31.020384000000004 9.619871999999999 31.987488 10.748736 32.322624000000005C11.556336 32.562335999999995 12.548784 32.292096 13.180464 31.660463999999997C13.664736000000001 31.176144000000004 13.92 30.561600000000002 13.92 29.88C13.92 28.739615999999998 13.180128000000002 27.772512000000003 12.051264000000002 27.437376C11.701104 27.333456 11.046144 27.339888000000002 10.704 27.450624M19.104 27.450624C18.654768 27.596016000000002 18.326784 27.792336 18.019296 28.099824C17.535263999999998 28.583808 17.28 29.198544000000002 17.28 29.88C17.28 31.020384000000004 18.019872 31.987488 19.148736 32.322624000000005C19.956336 32.562335999999995 20.948784 32.292096 21.580464000000003 31.660463999999997C22.064736 31.176144000000004 22.32 30.561600000000002 22.32 29.88C22.32 28.739615999999998 21.580128000000002 27.772512000000003 20.451264 27.437376C20.101104000000003 27.333456 19.446144 27.339888000000002 19.104 27.450624M27.504 27.450624C26.623824000000003 27.735504 26.017392 28.35288 25.757375999999997 29.228736C25.517664000000003 30.036336 25.787904 31.028784 26.419536 31.660463999999997C26.903855999999998 32.144736 27.5184 32.4 28.2 32.4C29.340384000000004 32.4 30.307488 31.660128 30.642624 30.531264C30.882336 29.723664000000003 30.612095999999998 28.731216 29.980463999999998 28.099536000000004C29.671152 27.790272 29.293056000000004 27.56856 28.851264 27.437376C28.501104 27.333456 27.846144000000002 27.339888000000002 27.504 27.450624M35.904 27.450624C35.023824000000005 27.735504 34.417392 28.35288 34.157376 29.228736C33.917664 30.036336 34.187904 31.028784 34.819536 31.660463999999997C35.303855999999996 32.144736 35.9184 32.4 36.6 32.4C37.740384000000006 32.4 38.707488 31.660128 39.042624 30.531264C39.282336 29.723664000000003 39.012096 28.731216 38.380463999999996 28.099536000000004C38.071152 27.790272 37.693056000000006 27.56856 37.251264 27.437376C36.901104000000004 27.333456 36.246144 27.339888000000002 35.904 27.450624M10.704 35.850624C9.849648 36.127152 9.276816 36.6828 9.00192 37.50168C8.547552000000001 38.855232 9.332256 40.302096 10.748736 40.722624C11.556336 40.962336 12.548784 40.692096 13.180464 40.060463999999996C13.664736000000001 39.576144 13.92 38.961600000000004 13.92 38.28C13.92 37.139616 13.180128000000002 36.172512000000005 12.051264000000002 35.837376C11.701104 35.733456000000004 11.046144 35.739888 10.704 35.850624M19.104 35.850624C18.654768 35.996016000000004 18.326784 36.192336 18.019296 36.499824000000004C17.535263999999998 36.983808 17.28 37.598544000000004 17.28 38.28C17.28 39.420384000000006 18.019872 40.387488 19.148736 40.722624C19.956336 40.962336 20.948784 40.692096 21.580464000000003 40.060463999999996C22.064736 39.576144 22.32 38.961600000000004 22.32 38.28C22.32 37.139616 21.580128000000002 36.172512000000005 20.451264 35.837376C20.101104000000003 35.733456000000004 19.446144 35.739888 19.104 35.850624M27.504 35.850624C26.623824000000003 36.135504 26.017392 36.75288 25.757375999999997 37.628736C25.517664000000003 38.436336 25.787904 39.428784 26.419536 40.060463999999996C26.903855999999998 40.544736 27.5184 40.800000000000004 28.2 40.800000000000004C29.340384000000004 40.800000000000004 30.307488 40.060128 30.642624 38.931264C30.882336 38.123664000000005 30.612095999999998 37.131216 29.980463999999998 36.499536C29.671152 36.190272 29.293056000000004 35.968560000000004 28.851264 35.837376C28.501104 35.733456000000004 27.846144000000002 35.739888 27.504 35.850624" fill-rule="evenodd" stroke-width="0.048"></path>
</svg>